<svg width="355" height="355" viewBox="0 0 355 355" xmlns="http://www.w3.org/2000/svg"><title>Boards</title><defs><filter x="-50%" y="-50%" width="200%" height="200%" filterUnits="objectBoundingBox" id="a"><feOffset dy="3" in="SourceAlpha" result="shadowOffsetOuter1"/><feGaussianBlur stdDeviation=".5" in="shadowOffsetOuter1" result="shadowBlurOuter1"/><feColorMatrix values="0 0 0 0 0 0 0 0 0 0 0 0 0 0 0 0 0 0 0.202977808 0" in="shadowBlurOuter1" result="shadowMatrixOuter1"/><feMerge><feMergeNode in="shadowMatrixOuter1"/><feMergeNode in="SourceGraphic"/></feMerge></filter></defs><g fill="none" fill-rule="evenodd"><path d="M-1 95.963V0h355v355H-1V95.963z" fill="#7C57E4"/><rect fill="#324D5B" x="144" y="137" width="27" height="4" rx="4"/><rect fill="#D8D8D8" x="119" y="177" width="109" height="4" rx="4"/><rect fill="#D8D8D8" x="117" y="177" width="4" height="15" rx="2"/><rect fill="#D8D8D8" x="139" y="115" width="4" height="7" rx="4"/><rect fill="#E2E1E1" x="136" y="121" width="10" height="3" rx="4"/><rect fill="#D8D8D8" x="114" y="115" width="27" height="4" rx="4"/><rect fill="#D8D8D8" x="111" y="90" width="4" height="101" rx="4"/><rect fill="#D8D8D8" x="53" y="90" width="62" height="4" rx="2"/><rect fill="#D8D8D8" x="53" y="90" width="4" height="38" rx="4"/><path d="M137 123s1.981.503 4 .503c1.98 0 4-.503 4-.503v39.998a4.004 4.004 0 0 1-4 4.002c-2.21 0-4-1.793-4-4.002V123z" fill="#E7E5EA"/><rect fill="#DCAE73" x="51" y="153" width="8" height="7" rx="2"/><path d="M14.767 259h8.266L26 265H12l2.767-6z" fill="#324D5B"/><rect fill="#324D5B" x="17" y="114" width="4" height="147" rx="3"/><path d="M54.563 220.892c.428-1.597 1.12-1.587 1.543 0l2.45 9.216c.424 1.597-.57 2.892-2.233 2.892h-1.997c-1.658 0-2.653-1.305-2.228-2.892l2.465-9.216z" fill="#FFBE32"/><rect fill="#CCC" x="39" y="261" width="32" height="4" rx="3"/><rect fill="#CCC" x="51" y="236" width="8" height="22" rx="2"/><rect fill="#516090" x="15" y="160" width="8" height="14" rx="3"/><path d="M158.767 261h8.266l2.967 6h-14l2.767-6z" fill="#324D5B"/><rect fill="#324D5B" x="161" y="116" width="4" height="147" rx="3"/><rect fill="#516090" x="159" y="132" width="8" height="14" rx="3"/><rect fill="#324D5B" x="22" y="165" width="50" height="4" rx="2"/><circle fill="#E7E5EA" cx="55" cy="192" r="15"/><path fill="#E7E6EB" d="M50 157h10v27H50z"/><rect fill="#E2E1E1" x="48" y="157" width="14" height="3" rx="2"/><path d="M107.985 208.272c.56-2.138 1.015-5.668 1.015-7.877V189h13.921v11.395c0 2.212.458 5.742 1.021 7.877l11.037 41.857c.564 2.138-.775 3.871-2.979 3.871h-32c-2.21 0-3.545-1.736-2.985-3.871l10.97-41.857z" fill="#E7E5EA"/><path fill="#D8D8D8" d="M53 127h4v26h-4z"/><rect fill="#AAA" x="48" y="257" width="14" height="5" rx="1"/><rect fill="#E7E5EA" x="79" y="90" width="10" height="45" rx="6"/><rect fill="#E3E1E1" x="107" y="189" width="18" height="4" rx="4"/><rect fill="#FFF" filter="url(#a)" x="184" y="121" width="158" height="105" rx="6"/><path d="M184 127c0-3.314 2.693-6 6-6h146c3.313 0 6 2.693 6 6v6H184v-6z" fill="#EAEAF5"/><circle fill="#FB4E54" cx="192" cy="126" r="2"/><circle fill="#FBAE58" cx="198" cy="126" r="2"/><circle fill="#65B455" cx="204" cy="126" r="2"/><path d="M184 133h32v93h-26c-3.314 0-6-2.683-6-5.995V133z" fill="#282828"/><rect fill="#F3F0ED" x="187" y="145" width="25" height="2" rx="6"/><rect fill="#ADACAC" x="187" y="149" width="15" height="2" rx="6"/><rect fill="#ADACAC" x="187" y="153" width="15" height="2" rx="6"/><rect fill="#ADACAC" x="187" y="167" width="15" height="2" rx="6"/><rect fill="#ADACAC" x="187" y="171" width="15" height="2" rx="6"/><rect fill="#ADACAC" x="187" y="175" width="15" height="2" rx="6"/><rect fill="#ADACAC" x="187" y="191" width="15" height="2" rx="6"/><rect fill="#F3F0ED" x="187" y="163" width="25" height="2" rx="6"/><rect fill="#F3F0ED" x="187" y="187" width="25" height="2" rx="6"/><path fill="#282828" d="M216 133h126v8H216z"/><path fill="#3E3E3E" d="M216 133h27v8h-27z"/><path fill="#3F3F3F" d="M279 133h27v8h-27z"/><path d="M216 141h126v79.006c0 3.31-2.69 5.994-5.992 5.994H216v-85z" fill="#373C46"/><path fill="#282828" d="M278 141h1v85h-1z"/><rect fill="#ADACAC" x="218" y="145" width="4" height="2" rx="6"/><rect fill="#ADACAC" x="218" y="150" width="4" height="2" rx="6"/><rect fill="#ADACAC" x="218" y="155" width="4" height="2" rx="6"/><rect fill="#ADACAC" x="218" y="165" width="4" height="2" rx="6"/><rect fill="#ADACAC" x="218" y="160" width="4" height="2" rx="6"/><rect fill="#ADACAC" x="218" y="170" width="4" height="2" rx="6"/><rect fill="#ADACAC" x="218" y="175" width="4" height="2" rx="6"/><rect fill="#ADACAC" x="218" y="180" width="4" height="2" rx="6"/><rect fill="#ADACAC" x="218" y="185" width="4" height="2" rx="6"/><rect fill="#ADACAC" x="218" y="190" width="4" height="2" rx="6"/><rect fill="#ADACAC" x="218" y="195" width="4" height="2" rx="6"/><rect fill="#ADACAC" x="218" y="200" width="4" height="2" rx="6"/><rect fill="#ADACAC" x="218" y="205" width="4" height="2" rx="6"/><rect fill="#ADACAC" x="218" y="210" width="4" height="2" rx="6"/><rect fill="#ADACAC" x="218" y="215" width="4" height="2" rx="6"/><rect fill="#ADACAC" x="218" y="220" width="4" height="2" rx="6"/><rect fill="#D8D8D8" x="225" y="145" width="19" height="2" rx="6"/><rect fill="#ADACAC" x="281" y="145" width="4" height="2" rx="6"/><rect fill="#ADACAC" x="281" y="150" width="4" height="2" rx="6"/><rect fill="#ADACAC" x="281" y="155" width="4" height="2" rx="6"/><rect fill="#ADACAC" x="281" y="165" width="4" height="2" rx="6"/><rect fill="#ADACAC" x="281" y="160" width="4" height="2" rx="6"/><rect fill="#ADACAC" x="281" y="170" width="4" height="2" rx="6"/><rect fill="#ADACAC" x="281" y="175" width="4" height="2" rx="6"/><rect fill="#ADACAC" x="281" y="180" width="4" height="2" rx="6"/><rect fill="#ADACAC" x="281" y="185" width="4" height="2" rx="6"/><rect fill="#ADACAC" x="281" y="190" width="4" height="2" rx="6"/><rect fill="#ADACAC" x="281" y="195" width="4" height="2" rx="6"/><rect fill="#ADACAC" x="281" y="200" width="4" height="2" rx="6"/><rect fill="#ADACAC" x="281" y="205" width="4" height="2" rx="6"/><rect fill="#ADACAC" x="281" y="210" width="4" height="2" rx="6"/><rect fill="#ADACAC" x="281" y="215" width="4" height="2" rx="6"/><rect fill="#ADACAC" x="281" y="220" width="4" height="2" rx="6"/><rect fill="#D8D8D8" x="288" y="145" width="19" height="2" rx="6"/><rect fill="#13B0A5" x="225" y="150" width="10" height="2" rx="6"/><rect fill="#13B0A5" x="310" y="150" width="10" height="2" rx="6"/><rect fill="#EF5F8B" x="237" y="150" width="20" height="2" rx="6"/><rect fill="#EF5F8B" x="225" y="155" width="6" height="2" rx="6"/><rect fill="#F6AC82" x="312" y="175" width="6" height="2" rx="6"/><rect fill="#F6AC82" x="225" y="160" width="6" height="2" rx="6"/><rect fill="#EF5F8B" x="225" y="210" width="6" height="2" rx="6"/><rect fill="#7C57E4" x="288" y="150" width="6" height="2" rx="6"/><rect fill="#EF5F8B" x="288" y="180" width="6" height="2" rx="6"/><rect fill="#EF5F8B" x="329" y="155" width="6" height="2" rx="6"/><rect fill="#EF5F8B" x="225" y="165" width="25" height="2" rx="6"/><rect fill="#F6AC82" x="288" y="155" width="25" height="2" rx="6"/><rect fill="#13B0A5" x="225" y="170" width="12" height="2" rx="6"/><rect fill="#13B0A5" x="288" y="175" width="12" height="2" rx="6"/><rect fill="#EF5F8B" x="242" y="180" width="12" height="2" rx="6"/><rect fill="#EF5F8B" x="225" y="175" width="8" height="2" rx="6"/><rect fill="#EF5F8B" x="225" y="195" width="8" height="2" rx="6"/><rect fill="#13B0A5" x="231" y="200" width="8" height="2" rx="6"/><rect fill="#7C57E4" x="225" y="205" width="8" height="2" rx="6"/><rect fill="#F6AC82" x="225" y="185" width="8" height="2" rx="6"/><rect fill="#F6AC82" x="235" y="175" width="15" height="2" rx="6"/><rect fill="#13B0A5" x="225" y="180" width="15" height="2" rx="6"/><rect fill="#13B0A5" x="252" y="175" width="10" height="2" rx="6"/><rect fill="#EF5F8B" x="239" y="170" width="8" height="2" rx="6"/><rect fill="#EF5F8B" x="302" y="175" width="8" height="2" rx="6"/><rect fill="#F6AC82" x="300" y="165" width="8" height="2" rx="6"/><rect fill="#7C57E4" x="310" y="165" width="8" height="2" rx="6"/><rect fill="#7C57E4" x="298" y="160" width="8" height="2" rx="6"/><rect fill="#13B0A5" x="288" y="160" width="8" height="2" rx="6"/><rect fill="#F6AC82" x="249" y="170" width="12" height="2" rx="6"/><rect fill="#13B0A5" x="235" y="195" width="12" height="2" rx="6"/><rect fill="#7C57E4" x="249" y="195" width="12" height="2" rx="6"/><rect fill="#13B0A5" x="252" y="165" width="4" height="2" rx="6"/><rect fill="#EF5F8B" x="235" y="185" width="4" height="2" rx="6"/><rect fill="#13B0A5" x="235" y="205" width="4" height="2" rx="6"/><rect fill="#EF5F8B" x="308" y="160" width="4" height="2" rx="6"/><rect fill="#7C57E4" x="288" y="170" width="4" height="2" rx="6"/><rect fill="#7C57E4" x="225" y="190" width="4" height="2" rx="6"/><rect fill="#13B0A5" x="241" y="185" width="4" height="2" rx="6"/><rect fill="#F6AC82" x="225" y="200" width="4" height="2" rx="6"/><rect fill="#F6AC82" x="247" y="185" width="10" height="2" rx="6"/><rect fill="#EF5F8B" x="288" y="165" width="10" height="2" rx="6"/><rect fill="#F6AC82" x="258" y="165" width="12" height="2" rx="6"/><rect fill="#7C57E4" x="233" y="155" width="12" height="2" rx="6"/><rect fill="#F6AC82" x="241" y="205" width="12" height="2" rx="6"/><rect fill="#EF5F8B" x="296" y="150" width="12" height="2" rx="6"/><rect fill="#7C57E4" x="315" y="155" width="12" height="2" rx="6"/><rect fill="#13B0A5" x="247" y="155" width="12" height="2" rx="6"/><rect fill="#EF5F8B" x="241" y="200" width="12" height="2" rx="6"/><rect fill="#516090" x="46" y="162" width="18" height="11" rx="3"/><rect fill="#516090" x="135" y="134" width="12" height="10" rx="2"/><path d="M55 205c7.18 0 13-5.82 13-13s-5.82-.73-13-.73-13-6.45-13 .73 5.82 13 13 13z" fill="#EF5F8B"/><circle fill="#FFF" cx="46.5" cy="192.5" r="1.5"/><circle fill="#FFF" cx="50.5" cy="199.5" r="2.5"/><circle fill="#03A9F4" cx="113.5" cy="213.5" r="2.5"/><circle fill="#03A9F4" cx="117.5" cy="214.5" r="2.5"/><circle fill="#03A9F4" cx="120.5" cy="213.5" r="2.5"/><circle fill="#03A9F4" cx="113" cy="206" r="2"/><circle fill="#03A9F4" cx="120" cy="203" r="2"/><circle fill="#03A9F4" cx="116" cy="199" r="1"/><circle fill="#03A9F4" cx="118" cy="196" r="1"/><circle fill="#03A9F4" cx="119" cy="209" r="1"/><circle fill="#03A9F4" cx="117.5" cy="206.5" r=".5"/><circle fill="#03A9F4" cx="111.5" cy="196.5" r="1.5"/><circle fill="#FFF" cx="50" cy="195" r="1"/><circle fill="#EF5F8B" cx="49.5" cy="184.5" r="1.5"/><circle fill="#EF5F8B" cx="48.5" cy="189.5" r="1.5"/><circle fill="#EF5F8B" cx="50.5" cy="190.5" r="1.5"/><ellipse fill="#EF5F8B" cx="44.5" cy="190" rx="1.5" ry="2"/><circle fill="#EF5F8B" cx="55.5" cy="191.5" r="1.5"/><circle fill="#EF5F8B" cx="53.5" cy="190.5" r="1.5"/><circle fill="#EF5F8B" cx="52.5" cy="190.5" r="1.5"/><circle fill="#EF5F8B" cx="59.5" cy="190.5" r="1.5"/><circle fill="#EF5F8B" cx="62.5" cy="189.5" r="1.5"/><circle fill="#EF5F8B" cx="51.5" cy="186.5" r=".5"/><circle fill="#EF5F8B" cx="52" cy="180" r="1"/><circle fill="#EF5F8B" cx="56" cy="183" r="1"/><circle fill="#EF5F8B" cx="65" cy="189" r="1"/><circle fill="#EF5F8B" cx="58.5" cy="187.5" r="1.5"/><circle fill="#EF5F8B" cx="54" cy="188" r="1"/><circle fill="#EF5F8B" cx="55.5" cy="175.5" r=".5"/><circle fill="#EF5F8B" cx="60.5" cy="182.5" r=".5"/><circle fill="#FFF" cx="56" cy="199" r="1"/><circle fill="#FFF" cx="60.5" cy="196.5" r="1.5"/><circle fill="#FFF" cx="58.5" cy="200.5" r=".5"/><circle fill="#FFF" cx="62" cy="192" r="1"/><circle fill="#FFF" cx="55.5" cy="195.5" r=".5"/><circle fill="#FFF" cx="53.5" cy="193.5" r="1.5"/><path d="M55.25 232c.69 0 1.25-.448 1.25-1s-.56-5.455-1.25-5.455S54 230.448 54 231c0 .552.56 1 1.25 1z" fill="#FF8782"/><path d="M262.386 235.844c.525-1.57 1.374-1.571 1.896 0l2.097 6.312c.522 1.57-.394 2.844-2.056 2.844h-1.997c-1.658 0-2.576-1.273-2.05-2.844l2.11-6.312z" fill="#FFBE32"/><path d="M263.25 244.564c.69 0 1.25-.358 1.25-.8 0-.442-.56-4.364-1.25-4.364s-1.25 3.922-1.25 4.364c0 .441.56.8 1.25.8z" fill="#FF8782"/><path d="M81 104.219s1.307 1.011 3 1.011 3-1.011 3-1.011V130a3.001 3.001 0 0 1-3 3c-1.657 0-3-1.35-3-2.999V104.22z" fill="#13B0A5"/><circle fill="#FFF" cx="83.5" cy="111.5" r="1.5"/><circle fill="#13B0A5" cx="83.5" cy="105.5" r="1.5"/><circle fill="#13B0A5" cx="85.5" cy="105.5" r="1.5"/><circle fill="#13B0A5" cx="86.5" cy="104.5" r=".5"/><circle fill="#FFF" cx="84" cy="127" r="1"/><circle fill="#FFF" cx="83" cy="123" r="1"/><circle fill="#FFF" cx="83" cy="115" r="1"/><circle fill="#FFF" cx="83.5" cy="117.5" r=".5"/><circle fill="#FFF" cx="85.5" cy="119.5" r=".5"/><circle fill="#FFF" cx="82.5" cy="120.5" r=".5"/><circle fill="#FFF" cx="85.5" cy="116.5" r=".5"/><circle fill="#FFF" cx="85.5" cy="108.5" r=".5"/><rect fill="#D8D8D8" x="82" y="81" width="4" height="15" rx="5"/><rect fill="#516090" x="72" y="87" width="24" height="10" rx="4"/><rect fill="#324D5B" x="75" y="79" width="18" height="4" rx="5"/><circle stroke="#324D5B" stroke-width="2" fill="#E7E5EA" cx="84" cy="66" r="15"/><path d="M96.777 63.772a.53.53 0 0 0-.353-.21l-3.077-.47a10.14 10.14 0 0 0-.69-1.648c.202-.28.505-.675.908-1.185.404-.51.69-.883.858-1.118a.647.647 0 0 0 .134-.387.542.542 0 0 0-.118-.37c-.403-.572-1.328-1.524-2.774-2.858a.649.649 0 0 0-.42-.168.546.546 0 0 0-.403.151l-2.387 1.8c-.46-.236-.964-.444-1.513-.623l-.471-3.093a.498.498 0 0 0-.193-.362.635.635 0 0 0-.412-.142h-3.732c-.325 0-.527.156-.606.47-.145.56-.308 1.603-.487 3.127a9.622 9.622 0 0 0-1.53.64l-2.32-1.8a.716.716 0 0 0-.437-.168c-.247 0-.776.4-1.589 1.202-.812.802-1.364 1.404-1.656 1.807-.1.146-.151.275-.151.387 0 .135.056.27.168.403.75.908 1.35 1.682 1.799 2.32a8.296 8.296 0 0 0-.656 1.547l-3.127.47a.507.507 0 0 0-.32.22.647.647 0 0 0-.134.386v3.732c0 .146.045.278.135.395a.53.53 0 0 0 .353.21l3.077.455c.156.549.386 1.104.689 1.664-.202.28-.505.675-.908 1.185s-.69.883-.857 1.118a.657.657 0 0 0-.017.773c.437.606 1.361 1.547 2.774 2.825a.58.58 0 0 0 .42.185c.168 0 .308-.05.42-.151l2.37-1.8c.46.236.965.443 1.514.623l.47 3.093a.499.499 0 0 0 .194.361.634.634 0 0 0 .412.143h3.732c.326 0 .527-.157.606-.47.145-.56.308-1.603.487-3.127a9.595 9.595 0 0 0 1.53-.64l2.32 1.817c.157.1.303.15.437.15.247 0 .773-.397 1.58-1.193s1.362-1.401 1.664-1.816a.56.56 0 0 0 .152-.386.648.648 0 0 0-.168-.42c-.807-.987-1.407-1.76-1.8-2.32.225-.415.444-.925.656-1.53l3.11-.47a.513.513 0 0 0 .337-.22.649.649 0 0 0 .134-.387v-3.732a.633.633 0 0 0-.134-.395zm-9.734 5.27c-.84.841-1.855 1.262-3.043 1.262-1.188 0-2.202-.42-3.043-1.261-.84-.84-1.26-1.855-1.26-3.043 0-1.188.42-2.202 1.26-3.043.84-.84 1.855-1.26 3.043-1.26 1.188 0 2.203.42 3.043 1.26.84.84 1.26 1.855 1.26 3.043 0 1.188-.42 2.202-1.26 3.043z" fill="#324D5B"/><circle fill="#E7E5EA" cx="84" cy="66" r="9"/><path d="M87.934 69.955c.767-.795.612-1.923-.183-2.69-.794-.768-7.778-5.918-8.238-5.442-.374.388 5.389 7.579 5.795 7.971.795.768 1.859.955 2.626.16z" fill="#EF5F8B"/><path d="M110.542 212c1.91 0 1.839 1.304 5.436 1.304s6.647-1.304 6.647-1.304l8.463 36.11c.504 2.148-.877 3.89-3.092 3.89h-23.992c-2.211 0-3.624-1.744-3.147-3.908 0 0 7.775-36.092 9.685-36.092z" fill="#03A9F4"/><path d="M138 146s1.481.64 3 .64c1.48 0 3-.64 3-.64v17.006a3 3 0 0 1-3 2.994c-1.657 0-3-1.343-3-2.994V146z" fill="#E7D16B"/><path d="M252.514 248.715c.82-2.052 3.277-3.715 5.493-3.715h10.144c2.213 0 4.662 1.67 5.464 3.715l4.928 12.57c.805 2.052-.335 3.715-2.543 3.715h-26c-2.209 0-3.332-1.67-2.514-3.715l5.028-12.57z" fill="#E7E5EA"/><path d="M253.23 252.849c.425-1.021 1.663-1.849 2.765-1.849h14.01c1.102 0 2.339.825 2.765 1.849l3.46 8.302c.425 1.021-.13 1.849-1.221 1.849H250.99c-1.1 0-1.647-.825-1.22-1.849l3.459-8.302z" fill="#FF6262"/></g></svg>